#!OML:ASF H:\ManfredETheater\Project 1\Capture day 1\Session 1\subject.ASF
:FULLY-SPECIFIED
:DEGREES
143
root 1.35297 16.0204 -3.68711 -5.96708 3.98464 0.0882292
lowerback 4.36169 -0.629494 -3.43522
upperback 0.240377 -0.975227 1.48007
thorax -2.11564 -0.448008 3.51457
lowerneck -19.0185 -1.88801 -2.45722
upperneck 23.2403 -1.97745 0.306828
head 10.6507 -1.08719 0.231659
rclavicle -2.10215e-014 1.98785e-015
rhumerus 25.7539 3.85517 -43.5053
rradius 69.3447
rwrist 9.49142
rhand 6.45595 -21.6263
rfingers 7.12502
rthumb 31.7577 -48.8805
lclavicle -2.10215e-014 1.98785e-015
lhumerus 25.4033 -1.87691 59.7606
lradius 74.6964
lwrist -23.3879
lhand 14.3406 16.2682
lfingers 7.12502
lthumb 39.2306 41.7218
rfemur -15.6151 -15.9951 8.0238
rtibia 64.197
rfoot -33.9056 0.932681
rtoes -12.6814
lfemur -17.6298 5.11076 -10.4143
ltibia 64.0699
lfoot -35.022 -3.18861
ltoes -13.3222
144
root 1.35247 16.0193 -3.68678 -5.9719 3.96893 0.0477314
lowerback 4.36437 -0.624101 -3.39527
upperback 0.23012 -0.965916 1.49339
thorax -2.12893 -0.443234 3.50544
lowerneck -18.9656 -1.8923 -2.45328
upperneck 23.2219 -1.98548 0.303927
head 10.6339 -1.09096 0.229301
rclavicle -2.5842e-015 2.00773e-014
rhumerus 25.7331 3.86028 -43.5094
rradius 69.3349
rwrist 9.51374
rhand 6.44421 -21.6352
rfingers 7.12502
rthumb 31.7465 -48.8916
lclavicle -2.5842e-015 2.00773e-014
lhumerus 25.3904 -1.89851 59.7698
lradius 74.6986
lwrist -23.3799
lhand 14.3084 16.2664
lfingers 7.12502
lthumb 39.2002 41.7288
rfemur -15.627 -15.97 8.07991
rtibia 64.2124
rfoot -33.9095 0.926672
rtoes -12.625
lfemur -17.635 5.12903 -10.3584
ltibia 64.0886
lfoot -35.026 -3.21094
ltoes -13.3638
145
root 1.35291 16.0186 -3.68614 -5.96781 3.9805 0.0669547
lowerback 4.37193 -0.625013 -3.40795
upperback 0.23129 -0.967971 1.494
thorax -2.13157 -0.444099 3.51347
lowerneck -18.994 -1.88481 -2.4607
upperneck 23.2215 -1.9728 0.308011
head 10.6391 -1.08522 0.233625
rclavicle 6.93262e-015 -6.36111e-015
rhumerus 25.7489 3.84815 -43.4926
rradius 69.3147
rwrist 9.51311
rhand 6.43331 -21.6508
rfingers 7.12502
rthumb 31.7361 -48.9093
lclavicle 6.93262e-015 -6.36111e-015
lhumerus 25.418 -1.89438 59.786
lradius 74.6933
lwrist -23.3809
lhand 14.3431 16.2606
lfingers 7.12502
lthumb 39.233 41.7135
rfemur -15.6302 -15.9788 8.0528
rtibia 64.2265
rfoot -33.9129 0.924025
rtoes -12.7111
lfemur -17.6422 5.12162 -10.3835
ltibia 64.0975
lfoot -35.0443 -3.20386
ltoes -13.2958
146
root 1.35322 16.0179 -3.684 -5.97616 3.9723 0.0795485
lowerback 4.37679 -0.620026 -3.41318
upperback 0.225947 -0.961847 1.49058
thorax -2.14031 -0.44073 3.51267
lowerneck -19.0011 -1.88513 -2.44738
upperneck 23.2446 -1.97388 0.295276
head 10.6487 -1.08617 0.226534
rclavicle -3.926e-015 -1.2921e-014
rhumerus 25.7377 3.84777 -43.4933
rradius 69.2972
rwrist 9.51786
rhand 6.43179 -21.6301
rfingers 7.12502
rthumb 31.7347 -48.8889
lclavicle -3.926e-015 -1.2921e-014
lhumerus 25.3953 -1.91778 59.7801
lradius 74.7023
lwrist -23.387
lhand 14.2934 16.2562
lfingers 7.12502
lthumb 39.1861 41.7227
rfemur -15.6162 -15.9664 8.0327
rtibia 64.2367
rfoot -33.9235 0.930801
rtoes -12.6864
lfemur -17.6224 5.12365 -10.3977
ltibia 64.1026
lfoot -35.0601 -3.18515
ltoes -13.3463
147
root 1.35392 16.0167 -3.68291 -5.98117 3.98687 0.112565
lowerback 4.36714 -0.624585 -3.44102
upperback 0.2297 -0.969015 1.4892
thorax -2.12999 -0.444332 3.52717
lowerneck -18.9928 -1.88456 -2.47041
upperneck 23.2409 -1.9696 0.308266
head 10.6461 -1.08467 0.235748
rclavicle 2.33572e-015 3.18055e-015
rhumerus 25.7475 3.86324 -43.4672
rradius 69.283
rwrist 9.52237
rhand 6.39758 -21.6643
rfingers 7.12502
rthumb 31.7021 -48.9295
lclavicle 2.33572e-015 3.18055e-015
lhumerus 25.3908 -1.91345 59.805
lradius 74.7087
lwrist -23.3907
lhand 14.2902 16.257
lfingers 7.12502
lthumb 39.1831 41.7243
rfemur -15.605 -15.9829 7.98143
rtibia 64.2508
rfoot -33.9379 0.93072
rtoes -12.7225
lfemur -17.6087 5.11441 -10.4359
ltibia 64.109
lfoot -35.0711 -3.20919
ltoes -13.2874
148
root 1.35414 16.0156 -3.68187 -5.97854 3.99108 0.121221
lowerback 4.36916 -0.621058 -3.44537
upperback 0.215813 -0.964677 1.48985
thorax -2.14573 -0.441557 3.53025
lowerneck -18.9601 -1.8891 -2.47386
upperneck 23.2322 -1.9764 0.310154
head 10.6368 -1.0879 0.236313
rclavicle -3.75206e-015 1.55052e-014
rhumerus 25.7137 3.86729 -43.4504
rradius 69.2925
rwrist 9.51157
rhand 6.4011 -21.67
rfingers 7.12502
rthumb 31.7054 -48.9345
lclavicle -3.75206e-015 1.55052e-014
lhumerus 25.3862 -1.93491 59.8164
lradius 74.7222
lwrist -23.3875
lhand 14.2925 16.2712
lfingers 7.12502
lthumb 39.1853 41.7379
rfemur -15.6051 -15.9803 7.96883
rtibia 64.2637
rfoot -33.9493 0.94004
rtoes -12.7232
lfemur -17.6163 5.11264 -10.4481
ltibia 64.1204
lfoot -35.0794 -3.20113
ltoes -13.2911
149
root 1.35411 16.0146 -3.68179 -5.97049 3.96282 0.0856863
lowerback 4.36216 -0.615672 -3.40966
upperback 0.218288 -0.955063 1.50853
thorax -2.14034 -0.437179 3.52873
lowerneck -19.0066 -1.88247 -2.48221
upperneck 23.2597 -1.96442 0.314942
head 10.6558 -1.08254 0.240695
rclavicle 1.38652e-014 -2.18663e-014
rhumerus 25.741 3.85372 -43.4565
rradius 69.2829
rwrist 9.5035
rhand 6.41113 -21.6553
rfingers 7.12502
rthumb 31.715 -48.918
lclavicle 1.38652e-014 -2.18663e-014
lhumerus 25.4072 -1.92476 59.834
lradius 74.7072
lwrist -23.3918
lhand 14.2478 16.2564
lfingers 7.12502
lthumb 39.1432 41.7353
rfemur -15.636 -15.9499 8.02526
rtibia 64.2757
rfoot -33.9527 0.917261
rtoes -12.7503
lfemur -17.6332 5.14619 -10.4001
ltibia 64.1335
lfoot -35.0771 -3.19699
ltoes -13.3402
150
root 1.35367 16.013 -3.68074 -5.9895 3.95238 0.084873
lowerback 4.38728 -0.607196 -3.40364
upperback 0.2168 -0.94429 1.50634
thorax -2.15702 -0.431484 3.52288
lowerneck -19.0193 -1.88473 -2.48687
upperneck 23.2742 -1.97067 0.332997
head 10.6639 -1.08357 0.246876
rclavicle 2.73329e-015 1.19271e-014
rhumerus 25.724 3.85184 -43.4486
rradius 69.2765
rwrist 9.47292
rhand 6.37989 -21.6441
rfingers 7.12502
rthumb 31.6852 -48.9127
lclavicle 2.73329e-015 1.19271e-014
lhumerus 25.3963 -1.94782 59.8211
lradius 74.7339
lwrist -23.3745
lhand 14.2456 16.2796
lfingers 7.12502
lthumb 39.1411 41.759
rfemur -15.6188 -15.9232 8.03114
rtibia 64.2865
rfoot -33.9605 0.8674
rtoes -12.8232
lfemur -17.6088 5.1591 -10.3896
ltibia 64.1461
lfoot -35.0964 -3.20012
ltoes -13.3549
